<svg width="1920" height="844" viewBox="0 0 1920 844" fill="none" xmlns="http://www.w3.org/2000/svg">
<path d="M1976.62 0C1874.24 27.9888 1654.35 144.583 1593.85 387.05C1533.36 629.517 1224.44 731.351 1111.53 743.045C780.449 813.783 111.676 678.632 -69.4001 913.278C-250.476 1147.92 1426.38 939.924 2002 818.959L1976.62 0Z" fill="#DDDAFF"/>
<path d="M2019.74 42C1929.92 66.1913 1737.02 166.966 1683.94 376.535C1630.87 586.104 1295.34 769.56 1196.29 779.668C1064.21 742.221 444.854 651.191 286 854C127.146 1056.81 1537.02 854.395 2042 749.843L2019.74 42Z" fill="#A199F8"/>
<path d="M2181.11 92C2082.27 116.333 1870.01 217.7 1811.61 428.5C1753.21 639.3 1455 727.833 1346 738C1026.39 799.5 380.8 682 206 886C31.2 1090 1649.94 909.167 2205.61 804L2181.11 92Z" fill="#5D4FFF"/>
</svg>
