<svg width="181" height="121" viewBox="0 0 181 121" fill="none" xmlns="http://www.w3.org/2000/svg">
<path d="M130.722 60.5001C130.722 38.2246 112.714 20.1667 90.5001 20.1667C68.2859 20.1667 50.2778 38.2246 50.2778 60.5001C50.2778 80.6316 64.9865 97.3177 84.2153 100.343V72.1589H74.0027V60.5001H84.2153V51.6142C84.2153 41.5056 90.2202 35.922 99.4079 35.922C103.809 35.922 108.412 36.7097 108.412 36.7097V46.6355H103.34C98.343 46.6355 96.7848 49.7446 96.7848 52.9342V60.5001H107.94L106.157 72.1589H96.7848V100.343C116.014 97.3177 130.722 80.6316 130.722 60.5001Z" fill="#8A80FF"/>
<path d="M106.157 72.1588L107.94 60.5H96.7848V52.9341C96.7848 49.7445 98.343 46.6354 103.34 46.6354H108.412V36.7096C108.412 36.7096 103.809 35.9219 99.4079 35.9219C90.2202 35.9219 84.2153 41.5055 84.2153 51.6141V60.5H74.0027V72.1588H84.2153V100.343C86.2944 100.67 88.3957 100.834 90.5001 100.833C92.6381 100.833 94.737 100.666 96.7848 100.343V72.1588H106.157Z" fill="white"/>
</svg>
