<svg width="167" height="114" viewBox="0 0 167 114" fill="none" xmlns="http://www.w3.org/2000/svg">
<path d="M40.7765 95H56.5167V55.8581L34.0306 38.5896V88.0926C34.0306 91.9089 37.0494 95 40.7765 95Z" fill="#A39AFF"/>
<path d="M110.483 95H126.224C129.951 95 132.969 91.9089 132.969 88.0926V38.5896L110.483 55.8581V95Z" fill="#5D4FFF"/>
<path d="M110.483 25.926V55.8581L132.969 38.5896V29.3797C132.969 20.8433 123.452 15.9678 116.779 21.0908L110.483 25.926Z" fill="#9B93FF"/>
<path d="M56.5167 55.8581V25.926L83.5 46.6482L110.483 25.926V55.8581L83.5 76.5803L56.5167 55.8581Z" fill="#5D4FFF"/>
<path d="M34.0306 29.3797V38.5896L56.5167 55.8581V25.926L50.2206 21.0908C43.5479 15.9678 34.0306 20.8433 34.0306 29.3797Z" fill="#DADADA"/>
</svg>
