<svg width="189" height="189" viewBox="0 0 189 189" fill="none" xmlns="http://www.w3.org/2000/svg">
<circle cx="94.0581" cy="94.0581" r="94.0581" fill="#5D4FFF"/>
<g clip-path="url(#clip0_32_10)">
<path fill-rule="evenodd" clip-rule="evenodd" d="M59.05 73.45V50.57H71.44V73.46H59.05V73.45ZM113.07 70.09C112.25 69.64 111.95 68.61 112.4 67.79C112.85 66.97 113.88 66.67 114.7 67.12C116.57 68.15 118.3 69.19 119.89 70.3C121.52 71.43 123 72.62 124.36 73.95C126.6 76.14 128.47 78.68 129.96 81.83C131.43 84.92 132.53 88.59 133.25 93.08C133.4 94 132.77 94.87 131.84 95.02C130.92 95.17 130.05 94.54 129.9 93.61C129.23 89.44 128.22 86.07 126.89 83.27C125.58 80.52 123.95 78.3 121.99 76.37C120.78 75.18 119.43 74.1 117.96 73.08C116.46 72.04 114.83 71.06 113.07 70.09ZM95.48 85.96C94.93 85.21 95.1 84.15 95.85 83.6C96.6 83.05 97.66 83.22 98.21 83.97C99.58 85.86 100.77 87.8 101.64 89.85C102.54 91.96 103.11 94.2 103.2 96.62C103.23 97.55 102.5 98.34 101.57 98.37C100.64 98.4 99.85 97.67 99.82 96.74C99.74 94.78 99.27 92.94 98.52 91.18C97.75 89.35 96.7 87.63 95.48 85.96ZM97.63 73.99C96.76 73.66 96.31 72.69 96.64 71.81C96.97 70.94 97.94 70.49 98.82 70.82C103.46 72.55 107.82 75.01 111.12 78.49C113.99 81.51 116.04 85.26 116.79 89.92C116.94 90.84 116.31 91.71 115.38 91.86C114.46 92.01 113.59 91.38 113.44 90.45C112.81 86.52 111.08 83.36 108.67 80.82C105.74 77.76 101.83 75.56 97.63 73.99ZM77.21 117.23C78.94 117.75 80.81 118.31 82.51 118.76C84.02 119.16 86.34 118.3 88.78 117.4C91.82 116.28 94.98 115.12 98.77 115.21C101.63 115.28 104.04 116.59 106.47 117.92C108 118.76 109.55 119.6 110.41 119.63C111.4 119.66 112.86 118.8 114.32 117.94C116.71 116.53 119.09 115.13 122.41 115.01C125.97 114.89 128.73 116.12 131.47 117.33C133.03 118.02 134.58 118.71 135.88 118.81C137.1 118.91 138.74 117.86 140.33 116.85C142.54 115.43 144.71 114.05 147.57 113.73C150.96 113.36 154.67 114.95 157.82 116.31L157.9 116.35C157.9 119.57 157.9 122.8 157.9 126.02C157.22 125.82 156.52 125.55 155.8 125.26C155.3 125.05 154.78 124.83 154.26 124.61C152.11 123.69 149.57 122.59 148.56 122.7C147.75 122.79 146.47 123.61 145.17 124.44C144.69 124.74 144.21 125.05 143.72 125.35C141.3 126.82 138.68 128.08 135.22 127.81C132.41 127.6 130.12 126.58 127.82 125.55L127.62 125.46C125.9 124.7 124.18 123.96 122.71 124C121.81 124.03 120.52 124.76 119.22 125.52L118.92 125.69C116.34 127.22 113.74 128.74 110.11 128.61C107.14 128.5 104.65 127.15 102.19 125.8L101.88 125.63C100.51 124.88 99.2 124.2 98.57 124.18C96.65 124.13 94.43 124.9 92.27 125.7L91.9 125.84C88.13 127.23 84.54 128.55 80.28 127.44C77.99 126.84 76.26 126.32 74.67 125.84L74.62 125.82C70.6 123.68 61.77 123.76 57.87 125.82L57.82 125.84C56.23 126.32 54.5 126.84 52.21 127.44C47.95 128.55 44.35 127.23 40.59 125.84L40.22 125.7C38.44 125.09 36.64 124.46 35 124.27V115.23C38.22 115.39 40.99 116.41 43.67 117.4C46.1 118.3 48.43 119.16 49.94 118.76C51.63 118.31 53.51 117.75 55.24 117.23C65.39 114.18 67.05 114.18 77.21 117.23ZM76.06 70.41V54.94C112.87 52.05 137.76 65.41 139.82 92.87C141.13 96.18 141.1 98.56 139.99 100.2L140.31 100C142.52 98.58 144.69 97.2 147.55 96.88C150.94 96.51 154.65 98.1 157.8 99.46L157.88 99.5C157.88 102.72 157.88 105.95 157.88 109.17C157.2 108.97 156.5 108.7 155.78 108.41C155.28 108.2 154.76 107.98 154.24 107.76C152.09 106.84 149.55 105.74 148.54 105.85C147.73 105.94 146.45 106.76 145.15 107.59C144.67 107.89 144.19 108.2 143.7 108.5C141.28 109.97 138.66 111.23 135.2 110.96C132.39 110.75 130.1 109.73 127.8 108.7L127.6 108.61C125.88 107.85 124.16 107.11 122.69 107.15C121.79 107.18 120.5 107.91 119.2 108.67L118.9 108.84C116.32 110.37 113.72 111.89 110.09 111.76C107.12 111.65 104.63 110.3 102.17 108.95L101.86 108.78C100.49 108.03 99.18 107.35 98.55 107.33C96.63 107.28 94.41 108.05 92.25 108.85L91.88 109C88.11 110.39 84.52 111.71 80.26 110.6C77.97 110 76.24 109.48 74.65 109L74.6 108.98C70.64 107.04 61.81 107.09 57.85 108.98L57.8 109C56.21 109.48 54.48 110 52.19 110.6C47.93 111.71 44.33 110.39 40.57 109L40.2 108.86C38.44 108.22 36.64 107.59 35 107.4V98.36C38.22 98.52 40.99 99.54 43.67 100.53C46.1 101.43 48.43 102.29 49.94 101.89C51.63 101.44 53.51 100.88 55.24 100.36C57.78 99.6 60.05 98.92 62.2 98.49C63.56 98.15 64.89 98.02 66.23 98.03C67.57 98.01 68.89 98.15 70.26 98.49C72.41 98.91 74.68 99.6 77.22 100.36C78.95 100.88 80.82 101.44 82.52 101.89C84.03 102.29 86.35 101.43 88.79 100.53C90.8 99.79 92.88 99.03 95.15 98.62C89.44 88.64 92.58 71.82 76.06 70.41ZM35.11 73.45V50.57H48.22V73.46H35.11V73.45ZM51.24 74.49V49.08C51.24 47.94 52.18 47 53.32 47C54.46 47 55.4 47.94 55.4 49.08V74.49C55.4 75.63 54.46 76.57 53.32 76.57C52.17 76.57 51.24 75.63 51.24 74.49Z" fill="white"/>
</g>
<defs>
<clipPath id="clip0_32_10">
<rect width="122.88" height="81.64" fill="white" transform="translate(35 47)"/>
</clipPath>
</defs>
</svg>
