<svg width="189" height="189" viewBox="0 0 189 189" fill="none" xmlns="http://www.w3.org/2000/svg">
<circle cx="94.0581" cy="94.4282" r="94.0581" fill="#5D4FFF"/>
<g clip-path="url(#clip0_30_16)">
<path fill-rule="evenodd" clip-rule="evenodd" d="M96.9422 106.49C96.6572 106.704 96.313 106.825 95.9567 106.837C95.6004 106.848 95.2492 106.75 94.9509 106.555C88.3734 102.417 82.5333 97.2126 77.6713 91.1548C71.7196 83.9299 67.7172 75.3042 66.0444 66.0981C64.6633 57.5534 65.9802 49.3402 70.2626 42.6563C71.9916 39.9412 74.1627 37.5339 76.6863 35.5339C82.2082 30.9286 89.1498 28.3643 96.3427 28.2725C103.308 28.3847 109.978 31.1016 115.036 35.8868C116.978 37.6655 118.658 39.7107 120.025 41.9611C124.596 49.4471 125.581 59.072 123.568 68.8252C121.882 76.5647 118.656 83.8869 114.082 90.3572C109.508 96.8274 103.68 102.314 96.9422 106.49V106.49ZM76.6007 107.282V137.033L108.88 150.936V112.618C111.311 110.765 113.618 108.753 115.785 106.597V150.636L142.55 137.172V77.2844L132.262 81.2412C133.295 78.5165 134.146 75.7263 134.81 72.889L144.766 69.0498C145.616 68.74 146.553 68.7761 147.376 69.1501C148.199 69.5242 148.842 70.2064 149.167 71.0496C149.322 71.4448 149.402 71.8655 149.402 72.2901V139.343C149.405 140.03 149.203 140.702 148.821 141.274C148.44 141.845 147.897 142.29 147.261 142.552L113.858 159.309C113.373 159.555 112.838 159.683 112.295 159.683C111.752 159.683 111.216 159.555 110.732 159.309L73.2603 143.086L41.0136 159.309C40.6094 159.514 40.1688 159.637 39.717 159.672C39.2652 159.706 38.8111 159.651 38.3805 159.51C37.95 159.369 37.5515 159.145 37.2078 158.85C36.8642 158.555 36.5822 158.195 36.3778 157.791C36.1354 157.31 36.0071 156.779 36.0031 156.24V85.2088C36.0029 84.4623 36.2448 83.7359 36.6926 83.1382C37.1404 82.5406 37.7699 82.1039 38.4869 81.8936L56.0235 75.1348C56.6747 77.3393 57.4467 79.5064 58.336 81.6262L42.9193 87.5616V150.658L69.6845 137.194V100.02C71.8387 102.58 74.1485 105.005 76.6007 107.282V107.282ZM95.0473 43.469C97.9524 43.469 100.792 44.3296 103.208 45.9418C105.623 47.554 107.506 49.8456 108.618 52.5266C109.73 55.2077 110.021 58.1579 109.454 61.0041C108.887 63.8503 107.488 66.4647 105.434 68.5166C103.38 70.5686 100.762 71.9661 97.9129 72.5322C95.0636 73.0984 92.1101 72.8078 89.4261 71.6973C86.7421 70.5867 84.448 68.7061 82.834 66.2932C81.22 63.8803 80.3585 61.0435 80.3585 58.1416C80.3585 54.2502 81.9061 50.5182 84.6607 47.7665C87.4154 45.0149 91.1516 43.469 95.0473 43.469V43.469Z" fill="white"/>
</g>
<defs>
<clipPath id="clip0_30_16">
<rect width="113.41" height="131.411" fill="white" transform="translate(36.0031 28.2725)"/>
</clipPath>
</defs>
</svg>
