<svg width="317" height="317" viewBox="0 0 317 317" fill="none" xmlns="http://www.w3.org/2000/svg">
<g clip-path="url(#clip0_28_10)">
<path d="M158.5 316.999C246.037 316.999 316.999 246.037 316.999 158.5C316.999 70.9627 246.037 0 158.5 0C70.9627 0 0 70.9627 0 158.5C0 246.037 70.9627 316.999 158.5 316.999Z" fill="#5D4FFF"/>
<path d="M166.599 116.459H80.7819L80.2889 154.41C80.2889 154.41 79.4408 154.41 106.077 154.41C109.947 154.568 121.026 155.179 124.617 157.093C132.073 161.067 138.055 162.221 144.52 162.484V162.557C145.116 162.557 145.696 162.542 146.277 162.532C146.86 162.542 147.441 162.557 148.031 162.557V162.484C154.501 162.221 160.482 161.067 167.935 157.093C170.303 155.832 175.909 155.143 180.577 154.765C212.295 156.597 210.41 156.019 210.41 182.326C210.41 182.326 217.796 185.204 229.19 185.204C240.588 185.204 247.999 182.326 247.999 182.326C247.861 128.094 241.111 116.459 166.599 116.459Z" fill="#D9E3E4"/>
<path d="M253.179 187.835C253.179 192.207 250.143 195.749 246.399 195.749H211.663C207.917 195.749 204.883 192.207 204.883 187.835C204.883 183.465 207.916 179.921 211.663 179.921H246.399C250.143 179.921 253.179 183.465 253.179 187.835Z" fill="#A39AFF"/>
<path d="M147.392 167.322C166.868 167.322 182.657 151.534 182.657 132.058C182.657 112.582 166.868 96.7939 147.392 96.7939C127.917 96.7939 112.128 112.582 112.128 132.058C112.128 151.534 127.917 167.322 147.392 167.322Z" fill="#D9E3E4"/>
<path d="M163.778 117.299C163.778 126.345 156.45 133.675 147.405 133.675C138.36 133.675 131.029 126.345 131.029 117.299V93.3453C131.029 84.3028 138.36 76.9694 147.405 76.9694C156.45 76.9694 163.778 84.3022 163.778 93.3453V117.299Z" fill="#D9E3E4"/>
<path d="M152.741 81.7077C152.741 81.7077 152.576 83.6822 147.911 83.6822C143.245 83.6822 141.469 81.7077 141.469 81.7077V61.548H152.741V81.7077Z" fill="#A39AFF"/>
<path d="M142.412 60.1741C140.355 60.1741 138.685 58.5073 138.685 56.4498C138.685 54.3924 140.355 52.7229 142.412 52.7229H152.398C154.456 52.7229 156.123 54.3924 156.123 56.4498C156.123 58.5073 154.456 60.1741 152.398 60.1741H142.412Z" fill="#A39AFF"/>
<path d="M175.857 61.2549C175.857 64.0254 173.827 66.2754 171.322 66.2754H123.193C120.693 66.2754 118.663 64.028 118.663 61.2549C118.663 58.4845 120.693 56.2371 123.193 56.2371H171.322C173.827 56.2371 175.857 58.4845 175.857 61.2549Z" fill="#A39AFF"/>
<path d="M92.6376 167.232C92.6376 174.73 86.6331 180.81 79.2254 180.81C71.815 180.81 65.8106 174.73 65.8106 167.232V103.432C65.8106 95.9337 71.815 89.8544 79.2254 89.8544C86.6338 89.8544 92.6376 95.9337 92.6376 103.432V167.232Z" fill="#A39AFF"/>
<path d="M241.201 148.774C236.369 135.895 228.858 127.846 212.224 126.234C212.224 126.234 222.363 132.364 228.858 136.43C234.774 140.127 241.201 148.774 241.201 148.774Z" fill="white"/>
<path d="M174.976 122.633C169.818 111.138 167.044 105.321 152.739 105.321C152.739 105.321 164.582 110.425 166.644 123.659C167.753 130.767 174.976 122.633 174.976 122.633Z" fill="white"/>
<path d="M230.246 209.381C230.246 209.381 217.738 231.951 217.738 240.663C217.738 247.579 223.336 253.175 230.246 253.177C237.164 253.175 242.76 247.579 242.76 240.661C242.76 232.579 230.246 209.381 230.246 209.381Z" fill="#C4E7ED"/>
<path d="M229.133 250.317C237.447 250.144 239.282 248.179 240.122 239.322C240.122 239.322 237.86 242.793 235.122 245.814C232.634 248.567 229.133 250.317 229.133 250.317Z" fill="white"/>
</g>
<defs>
<clipPath id="clip0_28_10">
<rect width="317" height="317" fill="white"/>
</clipPath>
</defs>
</svg>
